<svg width="18" height="19" viewBox="0 0 18 19" fill="none" xmlns="http://www.w3.org/2000/svg">
<path d="M2.89414 3.34362H8.48464V2.35169H2.89414V3.34362ZM1.90221 16.7166V4.33555H0.910286V16.7166H1.90221ZM13.1078 17.7085H2.89414V18.7004H13.1078V17.7085ZM14.0997 8.57244V16.7166H15.0916V8.57244H14.0997ZM14.4481 7.10988L9.82501 2.87299L9.15482 3.60427L13.778 7.84116L14.4481 7.10988ZM15.0916 8.57244C15.0916 8.01628 14.8582 7.48565 14.4481 7.10988L13.778 7.84116C13.983 8.02905 14.0997 8.29436 14.0997 8.57244H15.0916ZM13.1078 18.7004C14.2034 18.7004 15.0916 17.8122 15.0916 16.7166H14.0997C14.0997 17.2644 13.6556 17.7085 13.1078 17.7085V18.7004ZM0.910286 16.7166C0.910286 17.8122 1.79849 18.7004 2.89414 18.7004V17.7085C2.34632 17.7085 1.90221 17.2644 1.90221 16.7166H0.910286ZM8.48464 3.34362C8.73277 3.34362 8.97189 3.43662 9.15482 3.60427L9.82501 2.87299C9.45915 2.53769 8.9809 2.35169 8.48464 2.35169V3.34362ZM2.89414 2.35169C1.79849 2.35169 0.910286 3.23989 0.910286 4.33555H1.90221C1.90221 3.78772 2.34632 3.34362 2.89414 3.34362V2.35169Z" fill="white"/>
<path d="M9.31819 8.09558C9.26212 8.09555 9.21679 8.05151 9.21721 7.99749L9.25398 3.25364C9.2542 3.2252 9.26218 3.20914 9.27013 3.19841C9.2797 3.18551 9.29548 3.17264 9.31686 3.16424C9.33825 3.15585 9.35888 3.15444 9.37508 3.15723C9.38855 3.15954 9.40591 3.16566 9.4267 3.18585L14.3132 7.93261C14.334 7.9528 14.3402 7.96959 14.3425 7.98258C14.3453 7.99821 14.3436 8.01808 14.3347 8.03862C14.3259 8.05915 14.3124 8.07426 14.2989 8.08337C14.2877 8.09095 14.271 8.09851 14.2415 8.09849L9.31819 8.09558Z" stroke="white" stroke-width="0.991929"/>
</svg>
