<svg width="60" height="60" viewBox="0 0 60 60" fill="none" xmlns="http://www.w3.org/2000/svg">
<circle cx="30" cy="30" r="29" fill="url(#paint0_linear_152_500)" stroke="url(#paint1_linear_152_500)" stroke-width="2"/>
<path d="M30.4602 34.1523C31.7659 34.1523 33.0181 33.6337 33.9413 32.7104C34.8646 31.7872 35.3833 30.5349 35.3833 29.2293V23.0754C35.3833 21.7697 34.8646 20.5175 33.9413 19.5943C33.0181 18.671 31.7659 18.1523 30.4602 18.1523C29.1545 18.1523 27.9023 18.671 26.979 19.5943C26.0558 20.5175 25.5371 21.7697 25.5371 23.0754V29.2293C25.5371 30.5349 26.0558 31.7872 26.979 32.7104C27.9023 33.6337 29.1545 34.1523 30.4602 34.1523Z" fill="url(#paint2_linear_152_500)"/>
<path d="M39.0765 29.2308C39.0765 28.9043 38.9468 28.5913 38.716 28.3605C38.4852 28.1297 38.1721 28 37.8457 28C37.5193 28 37.2062 28.1297 36.9754 28.3605C36.7446 28.5913 36.6149 28.9043 36.6149 29.2308C36.6149 30.8629 35.9666 32.4281 34.8125 33.5822C33.6584 34.7363 32.0932 35.3846 30.4611 35.3846C28.829 35.3846 27.2637 34.7363 26.1097 33.5822C24.9556 32.4281 24.3072 30.8629 24.3072 29.2308C24.3072 28.9043 24.1776 28.5913 23.9468 28.3605C23.7159 28.1297 23.4029 28 23.0765 28C22.7501 28 22.437 28.1297 22.2062 28.3605C21.9754 28.5913 21.8457 28.9043 21.8457 29.2308C21.8481 31.3007 22.5957 33.3006 23.9518 34.8646C25.3078 36.4285 27.1816 37.452 29.2303 37.7477V40.3077H26.6334C26.3429 40.3077 26.0643 40.4231 25.8588 40.6285C25.6534 40.8339 25.538 41.1126 25.538 41.4031V41.6738C25.538 41.9644 25.6534 42.243 25.8588 42.4484C26.0643 42.6538 26.3429 42.7692 26.6334 42.7692H34.2888C34.5793 42.7692 34.8579 42.6538 35.0633 42.4484C35.2688 42.243 35.3842 41.9644 35.3842 41.6738V41.4031C35.3842 41.1126 35.2688 40.8339 35.0633 40.6285C34.8579 40.4231 34.5793 40.3077 34.2888 40.3077H31.6919V37.7477C33.7406 37.452 35.6144 36.4285 36.9704 34.8646C38.3264 33.3006 39.074 31.3007 39.0765 29.2308Z" fill="url(#paint3_linear_152_500)"/>
<defs>
<linearGradient id="paint0_linear_152_500" x1="30" y1="0" x2="30" y2="60" gradientUnits="userSpaceOnUse">
<stop stop-color="#484848"/>
<stop offset="1" stop-color="#232323"/>
</linearGradient>
<linearGradient id="paint1_linear_152_500" x1="30" y1="-10" x2="30" y2="60" gradientUnits="userSpaceOnUse">
<stop stop-color="white"/>
<stop offset="1" stop-color="#00DF16"/>
</linearGradient>
<linearGradient id="paint2_linear_152_500" x1="30.4602" y1="15.0695" x2="30.4602" y2="34.1523" gradientUnits="userSpaceOnUse">
<stop stop-color="white"/>
<stop offset="0.958333" stop-color="#00DF16"/>
</linearGradient>
<linearGradient id="paint3_linear_152_500" x1="30.4611" y1="25.1543" x2="30.4611" y2="42.7692" gradientUnits="userSpaceOnUse">
<stop stop-color="white"/>
<stop offset="0.958333" stop-color="#00DF16"/>
</linearGradient>
</defs>
</svg>
