<svg width="27" height="27" viewBox="0 0 27 27" fill="none" xmlns="http://www.w3.org/2000/svg">
<rect x="0.90625" y="1.10156" width="25" height="25" rx="0.853913" stroke="white"/>
<path d="M13.6065 16.5413C12.1774 16.5413 11.0176 15.3166 11.0176 13.8077C11.0176 12.2988 12.1774 11.0742 13.6065 11.0742C15.0356 11.0742 16.1955 12.2988 16.1955 13.8077C16.1955 15.3166 15.0356 16.5413 13.6065 16.5413ZM13.6065 12.1676C12.7505 12.1676 12.0532 12.9039 12.0532 13.8077C12.0532 14.7116 12.7505 15.4479 13.6065 15.4479C14.4626 15.4479 15.1599 14.7116 15.1599 13.8077C15.1599 12.9039 14.4626 12.1676 13.6065 12.1676Z" fill="white"/>
<path d="M15.8214 21.237C15.6764 21.237 15.5314 21.2151 15.3865 21.1787C14.9584 21.0547 14.5994 20.7705 14.3716 20.3695L14.2887 20.2238C13.8814 19.4802 13.3222 19.4802 12.9149 20.2238L12.8389 20.3623C12.6111 20.7705 12.2521 21.062 11.8241 21.1787C11.3891 21.3026 10.9404 21.237 10.5607 20.9964L9.37318 20.2748C8.95205 20.0197 8.64828 19.6042 8.5171 19.1012C8.39283 18.5982 8.45497 18.0807 8.6966 17.636C8.89682 17.2643 8.95205 16.929 8.83468 16.7176C8.71732 16.5062 8.42045 16.3822 8.01312 16.3822C7.00516 16.3822 6.18359 15.5148 6.18359 14.4506V13.1676C6.18359 12.1034 7.00516 11.2359 8.01312 11.2359C8.42045 11.2359 8.71732 11.112 8.83468 10.9006C8.95205 10.6892 8.90372 10.3539 8.6966 9.98216C8.45497 9.53751 8.39283 9.01267 8.5171 8.51699C8.64137 8.01402 8.94514 7.59853 9.37318 7.3434L10.5676 6.62175C11.3477 6.13336 12.3764 6.41765 12.8458 7.25593L12.9287 7.40171C13.336 8.14523 13.8952 8.14523 14.3026 7.40171L14.3785 7.26322C14.848 6.41765 15.8766 6.13336 16.6637 6.62904L17.8511 7.35069C18.2723 7.60582 18.5761 8.02131 18.7072 8.52428C18.8315 9.02725 18.7694 9.5448 18.5277 9.98945C18.3275 10.3612 18.2723 10.6965 18.3896 10.9079C18.507 11.1193 18.8039 11.2432 19.2112 11.2432C20.2192 11.2432 21.0407 12.1107 21.0407 13.1749V14.4578C21.0407 15.5221 20.2192 16.3895 19.2112 16.3895C18.8039 16.3895 18.507 16.5135 18.3896 16.7248C18.2723 16.9362 18.3206 17.2716 18.5277 17.6433C18.7694 18.088 18.8384 18.6128 18.7072 19.1085C18.583 19.6114 18.2792 20.0269 17.8511 20.2821L16.6568 21.0037C16.3944 21.1568 16.1114 21.237 15.8214 21.237ZM13.6053 18.5399C14.2197 18.5399 14.7927 18.9481 15.1862 19.6698L15.2622 19.8083C15.345 19.9613 15.4831 20.0707 15.6488 20.1144C15.8145 20.1582 15.9802 20.1363 16.1183 20.0488L17.3126 19.3199C17.4921 19.2105 17.6302 19.0283 17.6855 18.8096C17.7407 18.5909 17.7131 18.365 17.6095 18.1754C17.216 17.4611 17.1677 16.7248 17.4714 16.1636C17.7752 15.6023 18.4035 15.2815 19.1905 15.2815C19.6323 15.2815 19.9844 14.9098 19.9844 14.4433V13.1603C19.9844 12.7011 19.6323 12.3221 19.1905 12.3221C18.4035 12.3221 17.7752 12.0013 17.4714 11.44C17.1677 10.8788 17.216 10.1425 17.6095 9.42817C17.7131 9.23864 17.7407 9.01267 17.6855 8.79399C17.6302 8.57531 17.499 8.40036 17.3195 8.28373L16.1252 7.56208C15.8283 7.37256 15.4348 7.4819 15.2553 7.80263L15.1793 7.94113C14.7858 8.66278 14.2128 9.07099 13.5984 9.07099C12.9839 9.07099 12.4109 8.66278 12.0174 7.94113L11.9414 7.79534C11.7688 7.48919 11.3822 7.37985 11.0853 7.56208L9.89098 8.29102C9.71147 8.40036 9.5734 8.5826 9.51817 8.80128C9.46293 9.01996 9.49055 9.24593 9.59411 9.43545C9.98763 10.1498 10.036 10.886 9.73219 11.4473C9.42842 12.0086 8.80016 12.3293 8.01312 12.3293C7.57127 12.3293 7.21918 12.7011 7.21918 13.1676V14.4506C7.21918 14.9098 7.57127 15.2888 8.01312 15.2888C8.80016 15.2888 9.42842 15.6096 9.73219 16.1709C10.036 16.7321 9.98763 17.4684 9.59411 18.1827C9.49055 18.3722 9.46293 18.5982 9.51817 18.8169C9.5734 19.0356 9.70457 19.2105 9.88407 19.3272L11.0784 20.0488C11.2234 20.1436 11.396 20.1654 11.5548 20.1217C11.7205 20.078 11.8586 19.9613 11.9483 19.8083L12.0243 19.6698C12.4178 18.9554 12.9908 18.5399 13.6053 18.5399Z" fill="white"/>
</svg>
