<svg width="10" height="11" viewBox="0 0 10 11" fill="none" xmlns="http://www.w3.org/2000/svg">
<path d="M9.59494 5.05002V4.68058H9.2255H8.29485V1.71094V1.3415H7.92541H7.03686H6.66742V1.71094V10.082V10.4515H7.03686H7.92541H8.29485V10.082V6.15836H9.2255H9.59494V5.78892V5.05002ZM1.24103 7.51619L0.853828 7.70979L1.1059 8.06174L1.60162 8.75387L1.78414 9.00872L2.06531 8.87013C3.43527 8.19484 4.46373 7.31771 5.12232 6.22785L5.12258 6.22743C5.77367 5.14668 6.09967 3.93167 6.1062 2.59194L6.10802 2.2207H5.73677H1.82714H1.4577V2.59014V3.32904V3.69848H1.82714H4.40858C4.27993 4.44579 3.98993 5.11295 3.53931 5.70562L3.53873 5.70639C3.00967 6.40602 2.24959 7.01191 1.24103 7.51619Z" fill="white" stroke="#3A3A3A" stroke-width="0.738878"/>
</svg>
