<svg width="18" height="20" viewBox="0 0 18 20" fill="none" xmlns="http://www.w3.org/2000/svg">
<path d="M14.113 7.97824L13.7779 8.34391L14.113 7.97824ZM9.49025 3.74245L9.15519 4.10812L9.49025 3.74245ZM2.89414 3.84753H8.48506V2.8556H2.89414V3.84753ZM1.90221 17.2179V4.83946H0.910286V17.2179H1.90221ZM13.1078 18.2098H2.89414V19.2018H13.1078V18.2098ZM14.0997 9.07525V17.2179H15.0916V9.07525H14.0997ZM14.448 7.61257L9.82531 3.37678L9.15519 4.10812L13.7779 8.34391L14.448 7.61257ZM15.0916 9.07525C15.0916 8.51902 14.8581 7.98835 14.448 7.61257L13.7779 8.34391C13.9829 8.5318 14.0997 8.79714 14.0997 9.07525H15.0916ZM13.1078 19.2018C14.2034 19.2018 15.0916 18.3136 15.0916 17.2179H14.0997C14.0997 17.7657 13.6556 18.2098 13.1078 18.2098V19.2018ZM0.910286 17.2179C0.910286 18.3136 1.79849 19.2018 2.89414 19.2018V18.2098C2.34632 18.2098 1.90221 17.7657 1.90221 17.2179H0.910286ZM8.48506 3.84753C8.73317 3.84753 8.97226 3.9405 9.15519 4.10812L9.82531 3.37678C9.45946 3.04155 8.98127 2.8556 8.48506 2.8556V3.84753ZM2.89414 2.8556C1.79849 2.8556 0.910286 3.7438 0.910286 4.83946H1.90221C1.90221 4.29163 2.34632 3.84753 2.89414 3.84753V2.8556Z" fill="white"/>
<path d="M9.31824 8.60018C9.26217 8.60015 9.21683 8.55612 9.21725 8.5021L9.25402 3.75921C9.25424 3.73077 9.26222 3.71471 9.27017 3.70399C9.27974 3.69109 9.29552 3.67821 9.31691 3.66982C9.33829 3.66143 9.35893 3.66002 9.37513 3.6628C9.3886 3.66512 9.40596 3.67124 9.42675 3.69143L14.3131 8.43723C14.3339 8.45742 14.3401 8.4742 14.3424 8.48719C14.3451 8.50283 14.3435 8.52269 14.3346 8.54323C14.3257 8.56376 14.3123 8.57886 14.2988 8.58798C14.2876 8.59555 14.2709 8.60311 14.2413 8.60309L9.31824 8.60018L9.31809 9.07595L9.31824 8.60018Z" stroke="white" stroke-width="0.991929"/>
</svg>
