<svg width="16" height="16" viewBox="0 0 16 16" fill="none" xmlns="http://www.w3.org/2000/svg">
<path fill-rule="evenodd" clip-rule="evenodd" d="M1.09187 7.27158L1.10775 7.26024C1.51517 6.97137 2.0852 6.72358 2.76249 6.52052C3.2011 6.38901 3.69185 6.27418 4.22403 6.17895C4.40511 4.99088 4.73102 3.9221 5.16502 3.05417C5.45223 2.4798 5.79587 1.97772 6.18672 1.58982C3.54413 2.30356 1.51994 4.52338 1.09187 7.27158ZM8.01958 0.746094C3.81486 0.746094 0.40625 4.1547 0.40625 8.35943C0.40625 9.97748 0.91101 11.4776 1.77166 12.711H2.5214C1.78716 11.7846 1.28211 10.6682 1.09192 9.44761L1.10767 9.45886C1.51507 9.74793 2.08509 9.99598 2.76239 10.1993C3.20109 10.331 3.69195 10.446 4.22425 10.5414C4.34366 11.3242 4.52594 12.0552 4.76058 12.711H5.40244C5.16571 12.0967 4.97707 11.399 4.84972 10.6416C5.72849 10.7667 6.69848 10.841 7.71871 10.8532V15.3414C7.37328 15.2736 7.03148 15.0893 6.70712 14.7943V15.8601C7.13349 15.9341 7.57203 15.9728 8.01958 15.9728C10.4225 15.9728 12.5653 14.8596 13.9607 13.1208C13.7934 13.0088 13.6364 12.8827 13.4912 12.7443C12.5744 13.8869 11.3071 14.7362 9.85232 15.1291C10.2431 14.7412 10.5868 14.2391 10.8739 13.6647C11.3077 12.7971 11.6334 11.7289 11.8145 10.5415C12.0202 10.5046 12.2198 10.4648 12.4125 10.4223C12.4084 10.3523 12.4062 10.2819 12.4062 10.2109C12.4062 10.0724 12.4143 9.93566 12.43 9.80129C12.2581 9.84133 12.0797 9.87912 11.8953 9.91449C11.9486 9.41192 11.9765 8.8917 11.9765 8.35943C11.9765 7.82766 11.9486 7.30791 11.8955 6.80579C12.3344 6.88987 12.7395 6.98766 13.1039 7.09691C13.3862 7.18155 13.6408 7.27212 13.8658 7.36695C14.0644 7.22417 14.2786 7.10169 14.5054 7.00255C14.1588 6.82145 13.7432 6.66037 13.2767 6.52052C12.838 6.38898 12.347 6.27412 11.8147 6.17887C11.6337 4.99084 11.3078 3.9221 10.8739 3.05419C10.5868 2.4798 10.2431 1.9777 9.85232 1.58978C12.3638 2.26806 14.3167 4.30665 14.8719 6.86631C15.0616 6.80771 15.2582 6.7648 15.4601 6.7391C14.7175 3.31278 11.6683 0.746094 8.01958 0.746094ZM7.71871 1.37741C6.98681 1.52124 6.27125 2.18734 5.70322 3.3233C5.32336 4.08296 5.02685 5.02301 4.84944 6.07885C5.72828 5.954 6.69837 5.87983 7.71871 5.8676V1.37741ZM7.71871 6.46938C6.65386 6.48246 5.65175 6.56458 4.76059 6.70012C4.69754 7.23146 4.66399 7.787 4.66399 8.35943C4.66399 8.93243 4.6976 9.48851 4.76078 10.0203C5.65189 10.1561 6.65393 10.2383 7.71871 10.2514V6.46938ZM8.32045 10.2514V6.46938C9.38513 6.48246 10.3871 6.56455 11.2781 6.70005C11.3412 7.23141 11.3747 7.78697 11.3747 8.35943C11.3747 8.93245 11.3411 9.48855 11.2779 10.0204C10.3869 10.1561 9.38506 10.2383 8.32045 10.2514ZM4.14338 9.9144C3.70464 9.83021 3.29965 9.73231 2.93539 9.62296C2.2894 9.42904 1.78853 9.20413 1.45587 8.96811C1.1154 8.72653 1.00799 8.51648 1.00799 8.35943C1.00799 8.20242 1.11534 7.9925 1.45579 7.75112C1.78843 7.51526 2.28929 7.29059 2.9353 7.09691C3.29954 6.9877 3.70451 6.88994 4.14323 6.80587C4.09008 7.30797 4.06225 7.82769 4.06225 8.35943C4.06225 8.89167 4.09013 9.41186 4.14338 9.9144ZM11.189 10.6417C10.3104 10.7667 9.34052 10.841 8.32045 10.8532V15.3414C9.05232 15.1976 9.76778 14.5315 10.3357 13.3956C10.7153 12.6363 11.0116 11.6969 11.189 10.6417ZM11.1893 6.07879C10.3106 5.95398 9.34063 5.87983 8.32045 5.8676V1.37741C9.05232 1.52124 9.76778 2.18733 10.3357 3.32328C10.7155 4.08293 11.0119 5.02297 11.1893 6.07879Z" fill="white"/>
</svg>
